<svg width="24" height="24" viewBox="0 0 24 24" fill="none" xmlns="http://www.w3.org/2000/svg">
<path d="M15.0251 14.3532L15.028 9.64012C15.0262 9.55239 15.007 9.46591 14.9716 9.38565C14.9041 9.22381 14.7755 9.09518 14.6137 9.02768C14.5334 8.9923 14.4469 8.97314 14.3592 8.97128L9.64611 8.9742C9.55822 8.97425 9.47118 8.99162 9.38996 9.0253C9.30874 9.05899 9.23493 9.10833 9.17275 9.17051C9.04716 9.2961 8.97654 9.46637 8.97643 9.64387C8.97632 9.82137 9.04673 9.99155 9.17216 10.117C9.29759 10.2424 9.46778 10.3128 9.64528 10.3127L12.7512 10.3061L9.17175 13.8855C9.04668 14.0106 8.97635 14.1802 8.97624 14.357C8.97613 14.5337 9.04625 14.7032 9.17117 14.8281C9.29609 14.9531 9.46558 15.0232 9.64236 15.0231C9.81913 15.023 9.98871 14.9526 10.1138 14.8276L13.6932 11.2481L13.6866 14.354C13.6862 14.442 13.7032 14.5292 13.7366 14.6105C13.7701 14.6919 13.8193 14.7658 13.8815 14.828C13.9437 14.8901 14.0176 14.9394 14.0989 14.9728C14.1803 15.0063 14.2675 15.0233 14.3554 15.0229C14.4434 15.0232 14.5306 15.0061 14.612 14.9725C14.6934 14.939 14.7673 14.8896 14.8296 14.8274C14.8919 14.7651 14.9412 14.6912 14.9747 14.6098C15.0083 14.5284 15.0254 14.4412 15.0251 14.3532Z" fill="currentColor"/>
</svg>
