<svg width="33" height="34" viewBox="0 0 33 34" fill="none" xmlns="http://www.w3.org/2000/svg">
<path d="M17 5.0498C21.7243 5.5189 25.4811 9.27562 25.9502 14H26V25H28V27H21C21 29.7614 18.7614 32 16 32C13.2386 32 11 29.7614 11 27H4V25H6V14H6.0498C6.51889 9.27562 10.2757 5.5189 15 5.0498V3H17V5.0498ZM13 27C13 28.6569 14.3431 30 16 30C17.6569 30 19 28.6569 19 27H13Z" fill="#8796A1"/>
<circle cx="26" cy="7" r="7" fill="#FF3627"/>
<path d="M22.7334 9.80008V4.66675H24.6001L26.9334 7.46675V4.66675H28.8001V9.80008H26.9334L24.6001 7.00008V9.80008H22.7334Z" fill="white"/>
</svg>
