<svg width="20" height="20" viewBox="0 0 20 20" fill="none" xmlns="http://www.w3.org/2000/svg">
<path d="M2.5 7.81043C2.50054 5.0548 4.74104 3.35502 6.62109 3.82508C7.42293 4.02566 7.97444 4.29773 8.33496 4.53211C8.51485 4.64907 8.64618 4.75608 8.73633 4.83875C8.78115 4.87987 8.81551 4.91509 8.84082 4.94227C8.8535 4.95589 8.86395 4.968 8.87207 4.97743C8.87601 4.982 8.8799 4.98564 8.88281 4.98914C8.88419 4.9908 8.88557 4.99262 8.88672 4.99403L8.88867 4.99696L8.88965 4.99793C8.88821 4.99943 8.8644 5.01917 8.5 5.31043C8.13421 5.6028 8.11068 5.62155 8.10938 5.62293V5.62391L8.06055 5.57606C8.01022 5.52991 7.92236 5.45703 7.79004 5.37098C7.52585 5.19922 7.07729 4.97052 6.37891 4.79579C5.25822 4.51545 3.50054 5.56648 3.5 7.81043C3.49996 8.00285 3.56578 8.2645 3.72266 8.59657C3.87719 8.92365 4.1058 9.28867 4.39355 9.68055C4.96933 10.4647 5.75274 11.3142 6.57031 12.119C7.94533 13.4727 9.38227 14.667 9.99902 15.1679C10.6153 14.6674 12.0532 13.4732 13.4287 12.119C14.2463 11.3142 15.0306 10.4647 15.6064 9.68055C15.8941 9.28885 16.1218 8.92353 16.2764 8.59657C16.4333 8.2645 16.5 8.00286 16.5 7.81043C16.5 6.69715 16.0557 5.83298 15.4756 5.30555C14.886 4.76958 14.1943 4.60607 13.6572 4.78504C12.2924 5.24001 11.3801 6.13741 9.35352 8.16395C8.48249 9.03497 8.58021 9.76863 8.84668 10.1493C9.14119 10.5698 9.71693 10.7316 10.2227 10.3944C10.9398 9.91625 11.7916 9.18715 12.4756 8.56532C12.815 8.25674 13.1091 7.97882 13.3174 7.77821C13.4213 7.67813 13.5041 7.59736 13.5605 7.54188C13.5887 7.51417 13.6105 7.49277 13.625 7.4784C13.6322 7.47129 13.637 7.46536 13.6406 7.4618L13.6455 7.45692H13.6465L14.3535 8.16395L14.3291 8.18836C14.3136 8.2037 14.2909 8.22606 14.2617 8.25477C14.203 8.31248 14.1175 8.39607 14.0107 8.49891C13.7972 8.70454 13.4965 8.98913 13.1484 9.30555C12.4576 9.93354 11.56 10.7046 10.7773 11.2264C9.7832 11.8892 8.60791 11.5518 8.02734 10.7225C7.41881 9.85321 7.51751 8.58589 8.64648 7.45692C10.6194 5.48398 11.7061 4.38093 13.3418 3.83582C14.305 3.51503 15.3632 3.85151 16.1484 4.56532C16.9432 5.28792 17.5 6.42395 17.5 7.81043C17.5 8.20957 17.3694 8.62397 17.1807 9.02332C16.9897 9.42754 16.7227 9.84943 16.4121 10.2723C15.7909 11.1182 14.9651 12.0107 14.1309 12.8319C12.4606 14.4762 10.7091 15.8856 10.3691 16.1561C10.2731 16.2326 10.1454 16.2859 10 16.286C9.85453 16.286 9.72696 16.2325 9.63086 16.1561C9.2914 15.886 7.53961 14.4764 5.86914 12.8319C5.0349 12.0107 4.20804 11.1182 3.58691 10.2723C3.27642 9.84947 3.0093 9.42751 2.81836 9.02332C2.62973 8.62399 2.49992 8.20956 2.5 7.81043Z" fill="#BFBFBF"/>
</svg>
