<svg width="78" height="79" viewBox="0 0 78 79" fill="none" xmlns="http://www.w3.org/2000/svg">
<g clip-path="url(#clip0_1134_1869)">
<rect width="78" height="79" rx="39" fill="#EDF0F5"/>
<path d="M13 68.4679V69.5C13 75.0228 17.4772 79.5 23 79.5H56C61.5228 79.5 66 75.0228 66 69.5V68.6148C66 65.1277 64.1834 61.8923 61.2061 60.0769L48.7614 52.4886C46.7358 51.2536 45.5 49.0525 45.5 46.6802C45.5 45.2622 45.943 43.8797 46.7672 42.7259L48.6373 40.1077C49.8488 38.4117 50.5 36.3796 50.5 34.2953V24.7185C50.5 23.2573 50.1983 21.7962 49.3167 20.6309C47.6361 18.4096 44.0682 15 38 15C32.6184 15 29.2732 18.3939 27.6599 20.6156C26.8013 21.7979 26.5 23.2573 26.5 24.7185V33.8008C26.5 36.1879 27.3539 38.4962 28.9074 40.3087L30.9243 42.6617C31.9411 43.8479 32.5 45.3588 32.5 46.9212C32.5 49.1513 31.3645 51.2279 29.4871 52.4314L17.6033 60.0491C14.7349 61.8879 13 65.0607 13 68.4679Z" fill="#8796A1"/>
</g>
<defs>
<clipPath id="clip0_1134_1869">
<rect width="78" height="79" rx="39" fill="white"/>
</clipPath>
</defs>
</svg>
