<svg width="16" height="16" viewBox="0 0 16 16" fill="none" xmlns="http://www.w3.org/2000/svg">
<rect x="0.5" y="0.5" width="15" height="15" rx="7.5" stroke="#03C75A"/>
<path d="M7.50113 11V8.83496L7.76285 8.69336C8.71402 8.17861 9.26123 7.8654 9.59 7.53125C9.86945 7.24714 10.0002 6.93595 10.0002 6.33301C10 5.82436 9.72842 5.37207 9.30875 5.0293C8.88188 4.68065 8.36605 4.50006 8.00113 4.5C7.16334 4.5 6.3509 4.91667 5.94742 5.72363C5.82393 5.97062 5.52351 6.07076 5.27652 5.94727C5.02953 5.82377 4.9294 5.52336 5.05289 5.27637C5.64941 4.08333 6.8405 3.5 8.00113 3.5C8.63538 3.50006 9.36868 3.78698 9.94156 4.25488C10.5215 4.72864 11 5.44204 11.0002 6.33301C11.0002 7.13006 10.8092 7.71765 10.3029 8.23242C9.8912 8.65088 9.27945 9.00456 8.50113 9.42871V11C8.50112 11.276 8.27712 11.4998 8.00113 11.5C7.725 11.5 7.50115 11.2761 7.50113 11Z" fill="currentColor"/>
<path d="M8.5 12.5C8.5 12.7761 8.27614 13 8 13C7.72386 13 7.5 12.7761 7.5 12.5C7.5 12.2239 7.72386 12 8 12C8.27614 12 8.5 12.2239 8.5 12.5Z" fill="currentColor"/>
</svg>
