<svg width="15" height="14" viewBox="0 0 15 14" fill="none" xmlns="http://www.w3.org/2000/svg">
<path d="M5.99998 0C9.31368 0 12 2.68629 12 6C12 7.0359 11.7365 8.00998 11.2744 8.86035L14.707 12.293C15.0975 12.6835 15.0975 13.3165 14.707 13.707C14.3165 14.0976 13.6835 14.0976 13.2929 13.707L10.0302 10.4443C8.96515 11.4108 7.55148 12 5.99998 12C2.68628 12 0 9.31371 0 6C0 2.68629 2.68628 0 5.99998 0ZM5.99998 2C3.79085 2 1.99999 3.79086 1.99999 6C1.99999 8.20914 3.79085 10 5.99998 10C8.20911 10 9.99997 8.20914 9.99997 6C9.99997 3.79086 8.20911 2 5.99998 2Z" fill="currentColor"/>
</svg>
