<svg width="24" height="24" viewBox="0 0 24 24" fill="none" xmlns="http://www.w3.org/2000/svg">
<path d="M18.0134 10.0067C18.0134 6.14426 14.8691 3 11.0067 3C7.14426 3 4 6.14426 4 10.0067C4 13.8691 7.14426 17.0134 11.0067 17.0134C12.311 17.0134 13.5245 16.6558 14.5696 16.0321C15.003 15.7734 15.5663 15.8012 15.9232 16.1581L19.1476 19.3825C19.4886 19.7236 20.0415 19.7236 20.3825 19.3825C20.7236 19.0415 20.7236 18.4886 20.3825 18.1476L17.1581 14.9231C16.8012 14.5663 16.7734 14.0029 17.0311 13.5689C17.6687 12.4954 18.0106 11.2659 18.0134 10.0067ZM5.75167 10.0067C5.75167 7.10768 8.10768 4.75167 11.0067 4.75167C13.9057 4.75167 16.2617 7.10768 16.2617 10.0067C16.2617 12.9057 13.9057 15.2617 11.0067 15.2617C8.10768 15.2617 5.75167 12.9057 5.75167 10.0067Z" fill="currentColor"/>
</svg>
