<svg width="34" height="33" viewBox="0 0 34 33" fill="none" xmlns="http://www.w3.org/2000/svg">
<circle cx="16" cy="17" r="14" fill="#3682D5"/>
<path d="M14.156 20.1626L24.0211 10.3474C24.2539 10.1158 24.5256 10 24.836 10C25.1464 10 25.418 10.1158 25.6508 10.3474C25.8836 10.5791 26 10.8543 26 11.1732C26 11.4921 25.8836 11.7669 25.6508 11.9978L14.9708 22.6526C14.738 22.8842 14.4664 23 14.156 23C13.8455 23 13.5739 22.8842 13.3411 22.6526L8.33578 17.6726C8.10297 17.441 7.99122 17.1661 8.00054 16.848C8.00985 16.5299 8.1313 16.2547 8.36488 16.0223C8.59846 15.7899 8.87512 15.6741 9.19484 15.6748C9.51456 15.6756 9.79082 15.7914 10.0236 16.0223L14.156 20.1626Z" fill="white"/>
<circle cx="27" cy="7" r="7" fill="#FF3627"/>
<path d="M23.7334 9.80008V4.66675H25.6001L27.9334 7.46675V4.66675H29.8001V9.80008H27.9334L25.6001 7.00008V9.80008H23.7334Z" fill="white"/>
</svg>
