<svg width="16" height="16" viewBox="0 0 16 16" fill="none" xmlns="http://www.w3.org/2000/svg">
<rect x="0.5" y="0.5" width="15" height="15" rx="7.5" stroke="currentColor"/>
<path d="M7.5 5.25V4.75C7.5 4.47386 7.72386 4.25 8 4.25C8.27614 4.25 8.5 4.47386 8.5 4.75V5.25C8.5 5.52614 8.27614 5.75 8 5.75C7.72386 5.75 7.5 5.52614 7.5 5.25Z" fill="currentColor"/>
<path d="M7.5 12.25V8.25C7.5 7.97386 7.72386 7.75 8 7.75C8.27614 7.75 8.5 7.97386 8.5 8.25V12.25C8.5 12.5261 8.27614 12.75 8 12.75C7.72386 12.75 7.5 12.5261 7.5 12.25Z" fill="currentColor"/>
</svg>
