<svg width="33" height="34" viewBox="0 0 33 34" fill="none" xmlns="http://www.w3.org/2000/svg">
<path d="M16.5 5C23.9558 5 30 11.0442 30 18.5C30 25.9558 23.9558 32 16.5 32C15.62 32 14.7598 31.9147 13.9268 31.7539L2 30L4.4541 24.6006C3.52429 22.7683 3 20.6954 3 18.5C3 11.0442 9.04416 5 16.5 5Z" fill="#03C75A"/>
<path d="M11 24V13H14.3846L18.6154 19V13H22V24H18.6154L14.3846 18V24H11Z" fill="white"/>
<circle cx="26" cy="7" r="7" fill="#FF3627"/>
<path d="M22.7334 9.80008V4.66675H24.6001L26.9334 7.46675V4.66675H28.8001V9.80008H26.9334L24.6001 7.00008V9.80008H22.7334Z" fill="white"/>
</svg>
