<svg width="48" height="48" viewBox="0 0 48 48" fill="none" xmlns="http://www.w3.org/2000/svg">
<path d="M7 15.3425L22 6.84497L36.5 15.3425V33.3372L22 41.3349L7 32.3375V15.3425Z" fill="#DCFFE9"/>
<path d="M22.2529 6.41353L36.7529 14.9111L37 15.0565V33.6321L22.2412 41.7724L21.9893 41.912L21.7432 41.7636L6.74316 32.7662L6.5 32.6207V15.0516L21.7539 6.4106L22.0039 6.26807L22.2529 6.41353ZM7.5 15.6325V32.0545L22.0098 40.758L36 33.0425V15.6286L21.9941 7.42105L7.5 15.6325Z" fill="black"/>
<path d="M13 31.8376V25.8393L22 29.8381L31 24.8396L31.5 30.8378L21.5 36.8361L13 31.8376Z" fill="white"/>
<path d="M13 17.8417L21 12.3433L31 18.3415L31.5 23.8399L21.5 29.8382L12.5 24.3398L13 17.8417Z" fill="#54EF93"/>
<path d="M7.93374 32.0774L12.135 29.5574C12.3128 29.4507 12.5428 29.5524 12.5835 29.7557L12.9737 31.7061C12.9904 31.7898 13.0421 31.8624 13.1157 31.9057L21.3556 36.7513C21.4453 36.8041 21.556 36.8066 21.6481 36.7579L29.4904 32.6072C29.705 32.4937 29.9586 32.6687 29.9285 32.9095L29.5181 36.1915C29.5067 36.283 29.4538 36.3641 29.3748 36.4115L22.1526 40.7435C22.0585 40.8 21.9411 40.8006 21.8465 40.7451L7.93637 32.5933C7.73983 32.4781 7.73838 32.1946 7.93374 32.0774Z" fill="#DCFFE9"/>
<path d="M27.6426 15.6821L28.3535 17.0021L28.3525 17.003L28.335 17.0118C28.3228 17.0184 28.3048 17.0284 28.2812 17.0411C28.2339 17.0667 28.1644 17.1049 28.0752 17.1534C27.8964 17.2505 27.6394 17.3904 27.3281 17.5615C26.7052 17.9039 25.8646 18.3705 24.9941 18.8677C24.1226 19.3655 23.2259 19.8907 22.4883 20.3517C21.7201 20.8317 21.2066 21.1933 21.0293 21.3709C20.5386 21.8623 20.2334 22.218 20.04 22.5766C19.8581 22.914 19.7552 23.292 19.748 23.8497V27.7284C19.8148 27.9496 19.8898 28.0869 19.9658 28.1775C20.0431 28.2695 20.1481 28.3485 20.3203 28.4147C20.6176 28.5291 21.0588 28.587 21.748 28.5954V25.2985L21.7529 25.2584C21.8296 24.5562 22.0011 23.9557 22.3906 23.3713C22.7652 22.8095 23.3108 22.3093 24.04 21.7468C24.7947 21.1646 26.4632 20.1404 27.8975 19.2856C28.6241 18.8525 29.3058 18.4539 29.8057 18.1638C30.0557 18.0187 30.261 17.9001 30.4033 17.8182C30.4743 17.7774 30.5296 17.7452 30.5674 17.7235C30.5861 17.7128 30.6006 17.7047 30.6104 17.6991C30.6152 17.6964 30.6196 17.6947 30.6221 17.6933C30.6233 17.6925 30.6243 17.6917 30.625 17.6913L30.626 17.6903L31.3701 18.9927H31.3691C31.3686 18.993 31.3682 18.9941 31.3672 18.9946C31.3649 18.996 31.361 18.9979 31.3564 19.0005C31.3469 19.0059 31.3321 19.0142 31.3135 19.0249C31.2763 19.0462 31.2216 19.0782 31.1514 19.1186C31.0105 19.1997 30.8067 19.3163 30.5586 19.4603C30.0621 19.7484 29.3861 20.1441 28.666 20.5733C27.2061 21.4434 25.6243 22.4184 24.9561 22.9339C24.2627 23.4688 23.8756 23.8492 23.6396 24.2031C23.4239 24.5267 23.3078 24.8692 23.248 25.3834V29.3383H22.5L22.5195 30.0881C21.4143 30.1171 20.4885 30.0862 19.7822 29.8147C19.4058 29.67 19.0785 29.4534 18.8164 29.1411C18.5591 28.8345 18.3955 28.4717 18.2861 28.0779C18.2606 27.986 18.248 27.8916 18.248 27.7997V23.8301L18.2578 23.5519C18.2969 22.9156 18.4447 22.3749 18.7197 21.8649C19.0226 21.3034 19.4595 20.8188 19.9668 20.3107C20.2885 19.9884 20.9618 19.5377 21.6934 19.0806C22.4554 18.6043 23.3714 18.0672 24.25 17.5654C25.1298 17.0629 25.9781 16.5923 26.6055 16.2474C26.9191 16.075 27.1778 15.9335 27.3584 15.8354C27.4487 15.7863 27.5201 15.7483 27.5684 15.7222C27.5924 15.7092 27.6105 15.6986 27.623 15.6919C27.6293 15.6885 27.6345 15.6868 27.6377 15.6851C27.6393 15.6842 27.6408 15.6826 27.6416 15.6821H27.6426Z" fill="#03C75A"/>
<path d="M24.0991 13.7092C24.0991 13.7092 24.1002 13.7088 24.5005 14.3428C24.9006 14.9767 24.8999 14.9774 24.8999 14.9774H24.8989L24.8842 14.9872C24.8735 14.9939 24.8572 15.0043 24.8364 15.0174C24.7948 15.0437 24.7338 15.0823 24.6557 15.1317C24.4988 15.2308 24.2726 15.3734 23.9975 15.5476C23.447 15.8962 22.6986 16.3708 21.9087 16.8743C20.3216 17.8859 18.5867 19.0023 17.9272 19.4585C17.2909 19.8988 16.9445 20.235 16.7212 20.5783C16.4994 20.9191 16.3593 21.3262 16.2368 21.9793C16.1327 22.5347 16.1201 23.3662 16.145 24.1466C16.1664 24.8185 16.2142 25.403 16.2358 25.6462C16.495 26.2185 16.7792 26.4843 17.1362 26.6576C17.5665 26.8664 18.1504 26.9703 19.0981 27.0959L19.0005 27.8389L18.9018 28.5818C17.9984 28.462 17.166 28.3393 16.4809 28.0068C15.7353 27.6449 15.2135 27.0666 14.8296 26.1792C14.7881 26.0833 14.76 25.9783 14.7495 25.8658C14.7325 25.685 14.6717 25.0007 14.646 24.1944C14.6208 23.4048 14.6265 22.4308 14.7631 21.702C14.9013 20.9658 15.0874 20.3392 15.4633 19.7612C15.8378 19.1855 16.3621 18.7168 17.0737 18.2245C17.7625 17.748 19.5265 16.6143 21.102 15.61C21.8936 15.1055 22.6434 14.6305 23.1948 14.2813C23.4704 14.1068 23.6966 13.9639 23.854 13.8645C23.9326 13.8148 23.9938 13.7756 24.0356 13.7493C24.0565 13.7361 24.0727 13.7258 24.0835 13.719C24.0887 13.7157 24.0925 13.7129 24.0952 13.7112L24.0991 13.7092Z" fill="#03C75A"/>
<path d="M22 7.99881L8 16.0795V31.9205L22 40.0012L36 31.9205V16.0795L22 7.99881ZM38 31.9205C38 32.6348 37.6188 33.2953 37 33.6525L23 41.7321C22.3812 42.0893 21.6188 42.0893 21 41.7321L7 33.6525C6.38123 33.2953 6.00004 32.6348 6 31.9205V16.0795C6.00011 15.3653 6.38136 14.7056 7 14.3485L21 6.26787C21.6188 5.91071 22.3812 5.91071 23 6.26787L37 14.3485C37.6186 14.7056 37.9999 15.3653 38 16.0795V31.9205Z" fill="#03C75A"/>
<path d="M15.5 32.6677V28.8685C15.5 28.6354 15.7544 28.4914 15.9543 28.6113L17.8543 29.751C17.9447 29.8052 18 29.9028 18 30.0082V33.8073C18 34.0405 17.7456 34.1844 17.5457 34.0645L15.6457 32.9248C15.5553 32.8706 15.5 32.773 15.5 32.6677Z" fill="#03C75A"/>
<path d="M22.4102 30.2707V35.5368L30.4365 30.9043V25.6373L22.4102 30.2707ZM31.9365 31.165C31.9364 31.5399 31.7359 31.8865 31.4111 32.0739L21.6602 37.7022L12.7754 32.5738C12.4506 32.3863 12.2501 32.0397 12.25 31.6649V24.8397H13.75V31.4042L20.9102 35.5368V30.011C20.9103 29.6362 21.1108 29.2896 21.4355 29.1021L30.3613 23.9503C31.0613 23.5463 31.9365 24.0512 31.9365 24.8592V31.165Z" fill="#03C75A"/>
<rect x="28" y="27.8389" width="14" height="13.9959" rx="6.99796" fill="#004C22"/>
<path fill-rule="evenodd" clip-rule="evenodd" d="M37.7397 35.6388L38.0654 35.9987L37.5443 36.8866L37.0638 36.7906C36.7706 36.7317 36.4656 36.7807 36.2066 36.9281C35.9477 37.0756 35.7529 37.3113 35.6592 37.5905L35.5045 38.0384H34.4622L34.3156 37.5825C34.2219 37.3033 34.0271 37.0676 33.7681 36.9201C33.5092 36.7727 33.2042 36.7237 32.9109 36.7826L32.4305 36.8786L31.9012 35.9947L32.2269 35.6348C32.4272 35.4148 32.538 35.13 32.538 34.8349C32.538 34.5397 32.4272 34.255 32.2269 34.035L31.9012 33.675L32.4224 32.7951L32.9028 32.8911C33.196 32.95 33.5011 32.9011 33.76 32.7536C34.0189 32.6062 34.2137 32.3705 34.3074 32.0912L34.4622 31.6393H35.5045L35.6592 32.0952C35.7529 32.3745 35.9477 32.6102 36.2066 32.7576C36.4656 32.9051 36.7706 32.954 37.0638 32.8951L37.5443 32.7991L38.0654 33.687L37.7397 34.047C37.5417 34.2664 37.4323 34.5496 37.4323 34.8429C37.4323 35.1362 37.5417 35.4193 37.7397 35.6388ZM34.0785 33.5087C34.3463 33.3329 34.6612 33.2391 34.9833 33.2391C35.4152 33.2391 35.8295 33.4076 36.1349 33.7077C36.4403 34.0077 36.6119 34.4146 36.6119 34.8389C36.6119 35.1553 36.5164 35.4646 36.3374 35.7277C36.1585 35.9907 35.9041 36.1958 35.6066 36.3169C35.309 36.438 34.9815 36.4696 34.6656 36.4079C34.3497 36.3462 34.0595 36.1938 33.8317 35.9701C33.604 35.7464 33.4489 35.4613 33.386 35.151C33.3232 34.8406 33.3554 34.519 33.4787 34.2267C33.602 33.9343 33.8107 33.6845 34.0785 33.5087Z" fill="white"/>
<path fill-rule="evenodd" clip-rule="evenodd" d="M38.2451 34.8389C38.2451 34.936 38.2811 35.0298 38.3464 35.1028L38.896 35.6788C38.9534 35.7417 38.9891 35.8209 38.9979 35.9049C39.0067 35.989 38.9881 36.0736 38.9449 36.1467L38.1306 37.5305C38.0878 37.6035 38.0226 37.6613 37.9444 37.6958C37.8662 37.7303 37.7789 37.7396 37.6949 37.7225L36.9295 37.5705C36.8321 37.5507 36.7307 37.5667 36.6444 37.6153C36.5582 37.6639 36.493 37.7419 36.4613 37.8345L36.2129 38.5664C36.1856 38.6458 36.1336 38.7148 36.0641 38.7636C35.9947 38.8124 35.9115 38.8385 35.8261 38.8383H34.1975C34.1087 38.8429 34.0209 38.8188 33.9474 38.7696C33.8738 38.7205 33.8187 38.6491 33.7904 38.5664L33.542 37.8345C33.5103 37.7419 33.4451 37.6639 33.3588 37.6153C33.2726 37.5667 33.1712 37.5507 33.0738 37.5705L32.3084 37.7225C32.2244 37.7396 32.1371 37.7303 32.0589 37.6958C31.9806 37.6613 31.9155 37.6035 31.8727 37.5305L31.0584 36.1467C31.0141 36.0744 30.9942 35.9903 31.0015 35.9062C31.0088 35.8222 31.043 35.7426 31.0991 35.6788L31.6162 35.1028C31.6815 35.0298 31.7175 34.936 31.7175 34.8389C31.7175 34.7417 31.6815 34.6479 31.6162 34.5749L31.0991 33.999C31.043 33.9352 31.0088 33.8555 31.0015 33.7715C30.9942 33.6875 31.0141 33.6033 31.0584 33.531L31.8727 32.1472C31.9137 32.0793 31.9742 32.0249 32.0467 31.9907C32.1191 31.9565 32.2003 31.9442 32.2799 31.9553L33.0656 32.1072C33.163 32.127 33.2644 32.1111 33.3507 32.0624C33.437 32.0138 33.5021 31.9359 33.5339 31.8433L33.7619 31.1114C33.7902 31.0286 33.8453 30.9572 33.9189 30.9081C33.9924 30.859 34.0802 30.8349 34.169 30.8394H35.7976C35.883 30.8392 35.9662 30.8653 36.0356 30.9141C36.105 30.9629 36.1571 31.0319 36.1844 31.1114L36.4328 31.8433C36.4645 31.9359 36.5297 32.0138 36.6159 32.0624C36.7022 32.1111 36.8036 32.127 36.901 32.1072L37.6664 31.9553C37.7504 31.9381 37.8377 31.9475 37.9159 31.9819C37.9941 32.0164 38.0593 32.0743 38.1021 32.1472L38.9164 33.531C38.9596 33.6041 38.9782 33.6887 38.9694 33.7728C38.9606 33.8569 38.9249 33.9361 38.8675 33.999L38.3464 34.5749C38.2811 34.6479 38.2451 34.7417 38.2451 34.8389ZM38.0654 35.9987L37.7397 35.6388C37.5417 35.4193 37.4323 35.1362 37.4323 34.8429C37.4323 34.5496 37.5417 34.2664 37.7397 34.047L38.0654 33.687L37.5443 32.7991L37.0638 32.8951C36.7706 32.954 36.4656 32.9051 36.2066 32.7576C35.9477 32.6102 35.7529 32.3745 35.6592 32.0952L35.5045 31.6393H34.4622L34.3074 32.0912C34.2137 32.3705 34.0189 32.6062 33.76 32.7536C33.5011 32.9011 33.196 32.95 32.9028 32.8911L32.4224 32.7951L31.9012 33.675L32.2269 34.035C32.4272 34.255 32.538 34.5397 32.538 34.8349C32.538 35.13 32.4272 35.4148 32.2269 35.6348L31.9012 35.9947L32.4305 36.8786L32.9109 36.7826C33.2042 36.7237 33.5092 36.7727 33.7681 36.9201C34.0271 37.0676 34.2219 37.3033 34.3156 37.5825L34.4622 38.0384H35.5045L35.6592 37.5905C35.7529 37.3113 35.9477 37.0756 36.2066 36.9281C36.4656 36.7807 36.7706 36.7317 37.0638 36.7906L37.5443 36.8866L38.0654 35.9987Z" fill="white"/>
<path d="M32.1426 24.1671C32.1425 24.542 31.942 24.8885 31.6172 25.076L22.2412 30.4875L21.4912 29.189L30.6426 23.9064V18.7741L21.0137 13.2171L14.917 17.0002C14.2353 17.4853 13.8655 17.8522 13.6396 18.2381C13.4181 18.617 13.2937 19.0888 13.25 19.8675V23.84C13.25 23.9377 13.2918 24.064 13.4756 24.2325C13.6659 24.4069 13.9515 24.5697 14.2881 24.7099C14.6172 24.847 14.954 24.9459 15.2129 25.0106C15.3408 25.0425 15.447 25.0652 15.5195 25.0799C15.5557 25.0872 15.5838 25.0923 15.6016 25.0955C15.6102 25.0971 15.6164 25.0988 15.6201 25.0994C15.622 25.0997 15.6235 25.1003 15.624 25.1004L15.376 26.5785H15.3721C15.3697 26.5781 15.3661 26.5772 15.3623 26.5765C15.3546 26.5752 15.3442 26.5731 15.3311 26.5707C15.3049 26.5659 15.2683 26.5594 15.2227 26.5502C15.1312 26.5317 15.0026 26.5035 14.8496 26.4652C14.5461 26.3894 14.1325 26.2694 13.7119 26.0942C13.2987 25.9221 12.834 25.6786 12.4619 25.3376C12.0833 24.9906 11.75 24.4921 11.75 23.84V19.8207L11.751 19.8002C11.8003 18.8953 11.9523 18.1514 12.3447 17.4805C12.7326 16.8175 13.3129 16.3006 14.0664 15.7662L14.085 15.7535L14.1045 15.7408L20.4521 11.8015L20.5791 11.7342C20.8833 11.5989 21.237 11.6148 21.5303 11.784L31.6172 17.6055C31.942 17.793 32.1425 18.1395 32.1426 18.5144V24.1671Z" fill="#03C75A"/>
<path d="M13.5039 29.7026L7.50391 33.2016L6.49609 31.4736L12.4961 27.9746L13.5039 29.7026Z" fill="#03C75A"/>
</svg>
