<svg width="16" height="16" viewBox="0 0 16 16" fill="none" xmlns="http://www.w3.org/2000/svg">
<path d="M8 0C12.4183 0 16 3.58172 16 8C16 12.4183 12.4183 16 8 16C5.93147 16 4.04607 15.2152 2.62598 13.9268C2.4973 13.8749 2.37723 13.7957 2.27539 13.6885C2.18582 13.5942 2.119 13.4867 2.07324 13.373C0.785097 11.953 0 10.0683 0 8C0 3.58172 3.58172 0 8 0ZM4.54883 12.9062C5.52515 13.5943 6.71481 14 8 14C11.3137 14 14 11.3137 14 8C14 6.82481 13.661 5.72924 13.0771 4.80371L4.54883 12.9062ZM8 2C4.68629 2 2 4.68629 2 8C2 9.30629 2.41915 10.5139 3.12793 11.499L11.7441 3.31348C10.7177 2.49235 9.41672 2 8 2Z" fill="currentColor"/>
</svg>
